<?xml version="1.0" encoding="UTF-8" standalone="no"?><svg xmlns="http://www.w3.org/2000/svg" xmlns:xlink="http://www.w3.org/1999/xlink" contentScriptType="text/ecmascript" fill="#000000" width="398.2" zoomAndPan="magnify" contentStyleType="text/css" viewBox="-0.3 -0.1 398.2 434.9" height="434.9" preserveAspectRatio="xMidYMid meet" version="1"><g id="change1_1"><path fill="#ff2d2d" d="M251.94,0c15.89-.05,32.22,1.92,48.29,5.99,20.4,5.17,38.91,14.28,55.83,26.73,6.25,4.6,12.2,9.57,17.66,15.1,7.31,7.39,12.76,15.97,16.43,25.69,2.27,5.99,4.34,12.04,5.44,18.38,.71,4.14,1.14,8.31,1.46,12.49,.28,3.61,.57,7.23,.7,10.86,.17,4.72-.64,9.34-1.81,13.91-1.97,7.69-5.2,14.89-8.47,22.07-4.64,10.18-10.24,19.85-15.61,29.64-5.68,10.37-11.09,20.86-14.69,32.17-2.4,7.55-3.97,15.25-4.59,23.17-.91,11.64,.77,22.97,3.66,34.19,2.92,11.31,6.93,22.26,10.9,33.23,4.58,12.64,9.16,25.28,12.13,38.43,1.92,8.47,3.27,17.01,3.42,25.75,.18,10.5-1.05,20.72-5.13,30.47-4.63,11.06-12.18,19.64-22.43,25.81-8.35,5.03-17.5,7.74-27.12,9.04-12.79,1.73-25.39,.48-37.89-2.35-11.91-2.7-23.25-7.04-34.41-11.89-9.65-4.19-19.15-8.75-28.91-12.67-11.91-4.79-24.09-8.57-36.85-10.36-6.34-.89-12.71-1.44-19.11-1.68-4.91-.18-9.81-.41-14.72-.3-8.82,.19-17.64,.42-26.46,.63-9.75,.23-19.49,.04-29.22-.6-6.82-.45-13.59-1.18-20.34-2.22-13.85-2.14-27.24-5.82-39.86-12.02-8.28-4.07-15.96-9.09-22.57-15.57-8.2-8.03-14.14-17.42-16.55-28.81-1.16-5.47-1.39-10.99-.88-16.55,1.03-11.26,4.7-21.77,9.01-32.11,3.89-9.33,8.41-18.37,12.64-27.53,5.07-10.98,9.92-22.05,13.64-33.58,3.28-10.17,5.56-20.58,7.19-31.13,1.56-10.12,2.61-20.3,3.89-30.45,1.59-12.63,3.57-25.19,7.13-37.46,5.31-18.3,13.49-35.14,25.27-50.19,10.04-12.82,21.9-23.7,35.15-33.09,21.58-15.29,45.26-26.11,70.65-33.35,10.33-2.94,20.78-5.35,31.39-7.02,7.23-1.13,14.5-1.94,21.82-2.39,4.41-.27,8.81-.31,13.91-.4Zm-95.74,383.61c11.24-.06,21.68,.32,32.07,1.61,9.55,1.19,18.88,3.32,28.04,6.24,13.24,4.23,25.81,10.1,38.46,15.76,10.19,4.56,20.48,8.88,31.27,11.88,11.44,3.18,23.03,5,34.95,4.32,6.5-.37,12.86-1.44,18.99-3.6,15.25-5.37,25.59-15.57,30.11-31.26,2.78-9.65,2.87-19.53,1.76-29.42-1.13-10.06-3.6-19.84-6.61-29.5-2.56-8.22-5.53-16.29-8.45-24.39-3.93-10.9-7.82-21.82-10.72-33.06-3.26-12.63-4.81-25.39-3.63-38.45,.92-10.21,3.41-20.02,6.94-29.6,3.97-10.79,9.39-20.87,14.94-30.9,5.89-10.64,11.81-21.27,16.57-32.49,3.23-7.61,5.19-15.5,5.53-23.76,.25-6.11,.44-12.24-.37-18.33-.57-4.3-1.11-8.64-2.6-12.72-2.98-8.14-5.93-16.28-11.02-23.48-2.15-3.04-4.4-5.94-7.06-8.51-7.28-7.05-15.22-13.27-23.74-18.75-9.79-6.29-20.11-11.53-31.1-15.38-9.34-3.28-18.93-5.57-28.71-7.15-7.66-1.23-15.37-1.99-23.1-2.34-10.46-.47-20.91,.09-31.31,1.27-9.54,1.07-18.97,2.79-28.3,5.04-20,4.81-39.22,11.67-57.36,21.47-12.75,6.89-24.75,14.85-35.63,24.46-8.89,7.85-16.89,16.49-23.64,26.26-11.43,16.54-18.35,34.92-22.26,54.52-2.19,10.95-3.43,22.05-4.73,33.13-1.09,9.32-2.27,18.63-3.99,27.85-2.94,15.73-7.86,30.84-14.2,45.51-4.71,10.91-9.94,21.58-14.9,32.37-3.51,7.63-6.79,15.36-9.13,23.44-2.13,7.34-3.49,14.78-2.78,22.5,.46,4.95,1.67,9.66,3.8,14.13,3.7,7.74,9.3,13.92,16.01,19.14,7.99,6.23,16.94,10.68,26.47,14,16.34,5.69,33.31,7.77,50.47,8.54,7.61,.34,15.23,.17,22.84,.13,8.97-.05,17.92-.63,26.11-.5Z"/></g></svg>